<svg xmlns="http://www.w3.org/2000/svg" style="width:15px;height:15px; fill:white;" viewBox="0 0 15px 15px">
    <path d="M15 2.989V7.5c0 .467-.325.846-.726.846-.4 0-.726-.379-.726-.846V5.03l-5.535 6.452a.655.655 0 0 1-1.026 0l-2.39-2.786-3.358 3.913a.655.655 0 0 1-1.026 0 .948.948 0 0 1 0-1.196l3.87-4.511.514.598-.513-.598a.655.655 0 0 1 1.026 0L7.5 9.687l5.022-5.852h-2.119c-.4 0-.726-.38-.726-.846 0-.467.325-.846.726-.846h3.871c.095 0 .189.022.278.065.177.086.318.25.392.458a.968.968 0 0 1 .056.323Z"></path>
  </svg>