<svg xmlns="http://www.w3.org/2000/svg" xml:space="preserve" style="enable-background:new 0 0 165 40" viewBox="0 0 165 40"><path d="M38 16.3c0-2.2-1-4.3-2.8-5.7-3-2.3-8.2-6.3-11.7-9-2.6-2-6.3-2-9 0-3.5 2.7-8.7 6.7-11.7 9C1 11.9 0 14 0 16.3v16.5c0 4 3.3 7.2 7.3 7.2h23.4c4 0 7.3-3.2 7.3-7.2V16.3z" style="fill-rule:evenodd;clip-rule:evenodd;fill:#e17335"/><path d="M32 18c0-1.5-.7-2.9-1.9-3.9-2-1.5-5.6-4.3-8-6.1-1.8-1.4-4.3-1.4-6.1 0-2.4 1.8-6 4.5-8 6.1-1.3.9-2 2.4-2 3.9v11.1c0 2.7 2.2 4.9 5 4.9h16c2.8 0 5-2.2 5-4.9V18zm-2 0v11.1c0 1.6-1.3 2.9-3 2.9H11c-1.7 0-3-1.3-3-2.9V18c0-.9.4-1.8 1.2-2.3 2-1.5 5.6-4.3 8-6.1 1.1-.8 2.6-.8 3.7 0 2.4 1.8 6 4.5 8 6.1.7.5 1.1 1.4 1.1 2.3zm-12.2 7.8c.7-.6 1.7-.6 2.4 0s.7 1.7 0 2.3c-.7.6-1.7.6-2.4 0-.6-.6-.6-1.7 0-2.3zm-2.4-1.3c2-2 5.3-2 7.3 0 .4.4 1 .4 1.4 0 .4-.4.4-1 0-1.4-2.8-2.7-7.3-2.7-10.1 0-.4.4-.4 1 0 1.4.3.4 1 .4 1.4 0zm-3.2-3.4c3.8-3.7 9.9-3.7 13.7 0 .4.4 1 .4 1.4 0 .4-.4.4-1 0-1.4-4.6-4.5-11.9-4.5-16.5 0-.4.4-.4 1 0 1.4.3.4 1 .4 1.4 0zm41.7 9.4c-.9 0-1.8-.1-2.7-.4-.8-.3-1.5-.8-2.1-1.4-.6-.6-.9-1.5-1.1-2.5h2.5c.2.5.4.9.8 1.2.4.3.8.5 1.3.6.5.1 1 .2 1.5.2.4 0 .9-.1 1.2-.2.4-.1.7-.3 1-.6.3-.3.4-.6.4-1.1 0-.3-.1-.6-.2-.8-.1-.2-.3-.4-.6-.5-.2-.1-.5-.3-.9-.3-.3-.1-.7-.2-1.1-.3s-.8-.2-1.1-.3c-.4-.1-.7-.2-1.1-.4-.4-.1-.8-.3-1.2-.5-.4-.2-.7-.4-1-.7-.3-.3-.5-.6-.7-1-.2-.4-.3-.9-.3-1.5 0-.7.1-1.2.3-1.7.2-.5.5-.9.9-1.2.4-.3.8-.5 1.2-.7.5-.2.9-.3 1.4-.4.5-.1 1-.1 1.4-.1.9 0 1.7.1 2.4.4.7.3 1.3.7 1.8 1.4.5.6.7 1.4.8 2.4h-2.4c-.1-.5-.2-.8-.5-1.1-.3-.3-.6-.5-1-.6-.4-.1-.8-.2-1.3-.2-.3 0-.6 0-1 .1-.3.1-.6.1-.8.3-.2.1-.4.3-.6.5 0 .3-.1.6-.1.9 0 .3.1.6.2.8.1.2.3.4.6.5.3.1.6.3.9.4.5.2 1 .3 1.5.4.6.1 1.1.2 1.6.4.5.1.9.3 1.3.5s.8.4 1.1.7c.3.3.5.6.7 1 .2.4.3.9.3 1.4 0 .8-.1 1.5-.4 2-.3.5-.7 1-1.2 1.3-.5.3-1.1.6-1.7.8-.7.2-1.3.3-2 .3zm7.4-.2V19.8h2.2l.2 1.2c.3-.4.6-.6.9-.8.3-.2.6-.3 1-.4.3-.1.7-.1 1-.1.7 0 1.2.1 1.7.4.5.3.9.7 1.1 1.2.3-.4.6-.7.9-.9.3-.2.7-.4 1.1-.5.4-.1.8-.2 1.2-.2.8 0 1.5.2 2 .5s.9.8 1.1 1.4c.2.6.3 1.3.3 2v6.8h-2.4v-6.8c0-.3-.1-.6-.2-.8-.1-.3-.3-.5-.5-.6-.2-.2-.5-.2-.9-.2s-.7.1-1 .3c-.2.2-.4.4-.6.7-.1.3-.3.6-.3.9-.1.3-.1.6-.1 1v5.7h-2.4v-6c0-.3 0-.5-.1-.8 0-.3-.1-.6-.2-.8-.1-.3-.3-.5-.5-.6-.2-.2-.5-.2-.9-.2-.6 0-1 .2-1.3.5-.3.3-.5.7-.6 1.1-.1.4-.1.9-.1 1.3v5.7h-2.6zm20.2.2c-.5 0-1-.1-1.4-.2-.4-.1-.8-.3-1.2-.6-.3-.3-.6-.6-.8-1-.2-.4-.3-.9-.3-1.4 0-.7.1-1.2.4-1.7.3-.4.6-.8 1.1-1 .5-.2 1-.4 1.6-.5.6-.1 1.2-.1 1.8-.1h2.1c0-.5-.1-.9-.2-1.2-.1-.3-.4-.6-.7-.8-.3-.2-.7-.3-1.2-.3-.3 0-.6 0-.9.1-.3.1-.5.2-.7.3-.2.1-.3.3-.4.6h-2.5c.1-.5.3-1 .6-1.4.3-.4.6-.7 1.1-1 .4-.3.9-.4 1.4-.6.5-.1 1-.2 1.5-.2 1.5 0 2.6.4 3.3 1.3.7.9 1.1 2.1 1.1 3.7v5.7H85l-.1-1.2c-.3.5-.7.8-1.1 1-.4.2-.8.3-1.2.4-.5 0-.8.1-1.1.1zm.5-2c.5 0 1-.1 1.4-.3.4-.2.7-.5 1-.8.3-.4.4-.8.4-1.2v-.3h-2.9c-.3 0-.6.1-.8.2-.3.1-.5.2-.6.4-.1.2-.2.4-.2.7s.1.6.2.8c.2.2.4.4.7.5.2-.1.5 0 .8 0zm7.4 1.8V19.8h2.2l.1 1.4c.3-.4.6-.7.9-.9.3-.2.7-.4 1.1-.5.4-.1.8-.1 1.2-.1h.7V22H95c-.7 0-1.3.1-1.8.4-.5.3-.8.6-1.1 1.1s-.4 1.1-.4 1.8v5h-2.3zm11.9.1c-1.2 0-2-.3-2.5-1-.5-.6-.8-1.4-.8-2.6v-4.9h-1.6v-2.2H98v-3h2.4v3h3.2v2.2h-3.2v4.4c0 .3 0 .7.1.9.1.3.2.5.4.7.2.2.5.2.9.3.3 0 .6-.1.8-.2.2-.1.4-.2.6-.4l.8 1.9c-.3.2-.5.4-.9.5l-.9.3c-.2.1-.5.1-.9.1zm10.1-.1V16.2h2.5v6h6.6v-6h2.5v14.1h-2.5v-5.8h-6.6v5.8h-2.5zm19.1.2c-1.1 0-2-.2-2.8-.7-.8-.4-1.4-1.1-1.8-1.9-.4-.8-.6-1.8-.6-2.9 0-1.1.2-2.1.6-2.9.4-.8 1-1.4 1.8-1.9s1.7-.7 2.8-.7c1.1 0 2 .2 2.8.7.8.5 1.4 1.1 1.8 1.9.4.8.6 1.8.6 2.9 0 1.1-.2 2-.6 2.8-.4.8-1 1.4-1.8 1.9s-1.7.8-2.8.8zm0-2.3c.7 0 1.2-.1 1.6-.4.4-.3.7-.7.9-1.2.2-.5.3-1 .3-1.6s-.1-1.1-.3-1.6c-.2-.5-.5-.9-.9-1.2-.4-.3-.9-.5-1.6-.5-.7 0-1.2.2-1.6.5-.4.3-.7.7-.9 1.2-.2.5-.3 1-.3 1.6 0 .6.1 1.1.3 1.6.2.5.5.9.9 1.2.4.3 1 .4 1.6.4zm7.2 2.1V19.8h2.2l.2 1.2c.3-.4.6-.6.9-.8.3-.2.6-.3 1-.4.3-.1.7-.1 1-.1.7 0 1.2.1 1.7.4.5.3.9.7 1.1 1.2.3-.4.6-.7.9-.9.3-.2.7-.4 1.1-.5.4-.1.8-.2 1.2-.2.8 0 1.5.2 2 .5s.9.8 1.1 1.4c.2.6.3 1.3.3 2v6.8H150v-6.8c0-.3-.1-.6-.2-.8-.1-.3-.3-.5-.5-.6s-.5-.2-.9-.2-.7.1-1 .3c-.2.2-.4.4-.6.7-.1.3-.3.6-.3.9-.1.3-.1.6-.1 1v5.7H144v-6c0-.3 0-.5-.1-.8 0-.3-.1-.6-.2-.8-.1-.3-.3-.5-.5-.6-.2-.2-.5-.2-.9-.2-.6 0-1 .2-1.3.5-.3.3-.5.7-.6 1.1-.1.4-.1.9-.1 1.3v5.7h-2.6zm21.5.2c-1.1 0-2-.2-2.8-.7-.8-.5-1.3-1.1-1.7-1.9-.4-.8-.6-1.8-.6-2.8s.2-2 .6-2.8c.4-.8 1-1.5 1.8-1.9.8-.5 1.7-.7 2.8-.7.8 0 1.5.1 2.1.4.6.3 1.1.7 1.5 1.2.4.5.7 1.1.9 1.7s.3 1.3.3 2v.5c0 .1 0 .3-.1.5h-7.4c0 .5.2.9.4 1.3s.5.7.9.9c.4.2.9.3 1.4.3.3 0 .7 0 1-.1.3-.1.6-.2.8-.4.2-.2.4-.4.5-.7h2.4c-.2.8-.5 1.4-1 1.9s-1 .8-1.7 1.1c-.7 0-1.4.2-2.1.2zm-2.6-6.5h5.1c0-.4-.1-.8-.3-1.2s-.5-.6-.9-.8c-.4-.2-.8-.3-1.3-.3-.6 0-1 .1-1.4.3-.4.2-.7.5-.9.9-.2.3-.3.7-.3 1.1z" style="fill-rule:evenodd;clip-rule:evenodd;fill:#fff"/></svg>