<svg xmlns="http://www.w3.org/2000/svg" viewBox="0 0 234.6 30" class="sticky-logo" aria-label="InvestBoost" role="img">
    <path fill="#080c0e" d="M28.1 0a6.7 6.7 0 0 1-13.4 0h13.4ZM13.3 30V16.7H0C0 24.1 6 30 13.3 30Z" opacity=".4"></path>
    <path fill="#080c0e" d="M14.7 16.7H28a6.7 6.7 0 0 1-13.4 0h.1Zm-1.4-3.4V0H0c0 7.4 6 13.3 13.3 13.3Zm67 5.9h-.1L75.3 6h-4.6l7.1 18h4.8l7.1-18h-4.5l-4.9 13.2Zm-16.1-1.1L55.2 6H51v18h4V12.3L63.8 24h4.4V6h-4v12.1ZM42.5 24h4.2V6h-4.2v18Zm115.9-7.1c.3.6.4 1.2.4 2s-.3 1.9-.8 2.7c-.5.8-1.2 1.4-2.1 1.8-.9.4-1.9.6-3.1.6H143V6h9.4c1.1 0 2 .2 2.9.6.8.4 1.5.9 1.9 1.6.5.7.7 1.5.7 2.4s-.2 1.6-.6 2.2c-.4.6-1 1.1-1.8 1.4.7.3 1.3.6 1.8 1.1.5.4.9.9 1.2 1.5l-.1.1ZM147.2 13h4.6c.6 0 1.1-.1 1.4-.4.3-.3.5-.7.5-1.3s-.2-1-.5-1.3-.8-.4-1.4-.4h-4.6V13Zm7.5 5.3c0-.7-.2-1.1-.6-1.5-.4-.3-1-.5-1.9-.5h-4.9v4h4.9c.8 0 1.5-.2 1.9-.5.4-.4.6-.9.6-1.5ZM219.3 6v3.6h5.6v14.3h4.1V9.6h5.6V6h-15.3Zm-6.2 7.3-4-.8c-1.3-.3-1.9-.8-1.9-1.7s.3-1 .8-1.4c.5-.3 1.2-.5 2.1-.5 2.1 0 3.3.8 3.7 2.5h4.3c-.1-1.8-.9-3.2-2.3-4.2s-3.2-1.5-5.4-1.5-4 .5-5.3 1.4c-1.3 1-1.9 2.3-1.9 4s.4 2.4 1.2 3.3c.8.8 2.1 1.4 3.8 1.8l3.8.8c.8.2 1.3.4 1.6.7.3.3.5.7.5 1.2s-.3 1.2-.8 1.5-1.3.5-2.4.5-2.2-.2-2.9-.7-1.1-1.2-1.3-2.1h-4.3c.1 1.9.9 3.4 2.4 4.5s3.4 1.6 5.9 1.6 4.3-.5 5.5-1.5c1.3-1 2-2.4 2-4.2s-.4-2.6-1.2-3.4c-.8-.8-2.1-1.4-3.9-1.8ZM178 10.1c.8 1.4 1.2 3 1.2 4.9s-.4 3.5-1.2 4.9-1.8 2.5-3.2 3.2c-1.4.8-3 1.1-4.8 1.1s-3.5-.4-4.9-1.1c-1.4-.8-2.4-1.8-3.2-3.2-.8-1.4-1.2-3-1.2-4.9s.4-3.5 1.2-4.9 1.8-2.5 3.2-3.2c1.4-.8 3-1.1 4.9-1.1s3.5.4 4.9 1.1 2.5 1.8 3.2 3.2h-.1Zm-3 4.9c0-1.7-.4-3.1-1.3-4.1-.9-1-2.1-1.5-3.7-1.5s-2.9.5-3.7 1.5c-.9 1-1.3 2.4-1.3 4.1s.4 3.1 1.3 4.1c.9 1 2.1 1.5 3.8 1.5s2.9-.5 3.7-1.5c.9-1 1.3-2.4 1.3-4.1h-.1Zm24-4.9c.8 1.4 1.2 3 1.2 4.9s-.4 3.5-1.2 4.9-1.8 2.5-3.2 3.2c-1.4.8-3 1.1-4.8 1.1s-3.5-.4-4.9-1.1c-1.4-.8-2.4-1.8-3.2-3.2-.8-1.4-1.2-3-1.2-4.9s.4-3.5 1.2-4.9 1.8-2.5 3.2-3.2c1.4-.8 3-1.1 4.9-1.1s3.5.4 4.9 1.1 2.5 1.8 3.2 3.2h-.1Zm-3.1 4.9c0-1.7-.4-3.1-1.3-4.1-.9-1-2.1-1.5-3.7-1.5s-2.9.5-3.7 1.5c-.9 1-1.3 2.4-1.3 4.1s.4 3.1 1.3 4.1c.9 1 2.1 1.5 3.8 1.5s2.9-.5 3.7-1.5c.9-1 1.3-2.4 1.3-4.1h-.1ZM92.3 24h13.3v-3.6h-9.1v-3.9h8.3V13h-8.3V9.8h9.1V6.2H92.3v18-.2Zm26.4-10.7-4-.8c-1.3-.3-1.9-.8-1.9-1.7s.3-1 .8-1.4c.5-.3 1.2-.5 2.1-.5 2.1 0 3.3.8 3.7 2.5h4.3c-.1-1.8-.9-3.2-2.3-4.2s-3.2-1.5-5.4-1.5-4 .5-5.3 1.4c-1.3 1-1.9 2.3-1.9 4s.4 2.4 1.2 3.3 2.1 1.4 3.8 1.8l3.8.8c.8.2 1.3.4 1.6.7.3.3.5.7.5 1.2s-.3 1.2-.8 1.5-1.3.5-2.4.5-2.2-.2-2.9-.7c-.7-.5-1.1-1.2-1.3-2.1H108c.1 1.9.9 3.4 2.4 4.5s3.4 1.6 5.9 1.6 4.3-.5 5.5-1.5c1.3-1 2-2.4 2-4.2s-.4-2.6-1.2-3.4c-.8-.8-2.1-1.4-3.9-1.8Zm6.2-3.6h5.6V24h4.1V9.7h5.6V6.1h-15.3v3.6Z"></path>
  </svg>