<svg xmlns="http://www.w3.org/2000/svg" viewBox="0 0 234.648 30" class="default-logo" aria-label="InvestBoost" role="img">
    <path fill="#fff" d="M28.071 0a6.669 6.669 0 1 1-13.337 0H28.07ZM13.337 30V16.663H0C0 24.029 5.971 30 13.337 30Z" opacity=".4"></path>
    <path fill="#fff" d="M14.734 16.663H28.07a6.669 6.669 0 0 1-13.337 0Zm-1.397-3.326V0H0c0 7.366 5.971 13.337 13.337 13.337Zm66.997 5.853h-.11L75.301 6.022h-4.589l7.072 17.956h4.832L89.69 6.022h-4.5L80.334 19.19Zm-16.179-1.086h-.089L55.09 6.022h-4.235v17.956h3.99V12.229h.09l8.8 11.749h4.411V6.022h-3.99v12.082ZM42.48 23.978h4.168V6.022H42.48v17.956Zm115.965-7.116c.266.591.399 1.249.399 1.973 0 1.02-.252 1.914-.754 2.682-.503.769-1.205 1.375-2.106 1.818-.887.429-1.928.643-3.125.643h-9.799V6.022h9.4c1.092 0 2.046.192 2.86.576.826.385 1.469.924 1.928 1.619.472.68.709 1.47.709 2.372 0 .857-.215 1.603-.643 2.239-.429.62-1.042 1.1-1.84 1.44v.09c.71.206 1.315.531 1.818.975.502.428.887.938 1.153 1.53Zm-11.217-3.835h4.633c.635 0 1.115-.14 1.44-.421.326-.296.489-.717.489-1.264 0-.561-.163-.983-.488-1.263-.326-.281-.806-.421-1.441-.421h-4.633v3.37Zm7.448 5.276c0-.65-.215-1.145-.643-1.485-.429-.34-1.05-.51-1.862-.51h-4.943v4.034h4.921c.827 0 1.455-.177 1.884-.532.428-.354.643-.857.643-1.507Zm64.632-12.28v3.635h5.631v14.32h4.079V9.658h5.63V6.022h-15.34Zm-6.229 7.314-3.968-.82c-1.271-.266-1.906-.842-1.906-1.729 0-.59.258-1.042.776-1.352.517-.325 1.227-.488 2.128-.488 2.054 0 3.288.843 3.702 2.527h4.256c-.147-1.803-.909-3.207-2.283-4.212-1.375-1.005-3.185-1.507-5.431-1.507-2.232 0-3.998.48-5.298 1.441-1.286.96-1.929 2.29-1.929 3.99 0 1.345.413 2.431 1.241 3.259.828.827 2.099 1.426 3.813 1.795l3.79.798c.769.163 1.316.392 1.641.688.34.28.51.68.51 1.197 0 .665-.274 1.167-.82 1.507-.532.325-1.345.488-2.439.488-1.21 0-2.164-.23-2.86-.687-.694-.459-1.122-1.153-1.285-2.084h-4.256c.133 1.921.923 3.421 2.372 4.5 1.463 1.064 3.421 1.596 5.874 1.596 2.409 0 4.256-.495 5.542-1.485 1.3-.99 1.951-2.38 1.951-4.168 0-1.448-.407-2.593-1.22-3.436-.812-.842-2.113-1.448-3.9-1.818Zm-35.043-3.258c.768 1.374 1.152 3.015 1.152 4.92 0 1.878-.384 3.51-1.152 4.9a7.975 7.975 0 0 1-3.237 3.214c-1.374.754-2.985 1.131-4.833 1.131s-3.466-.377-4.854-1.13a8.197 8.197 0 0 1-3.215-3.215c-.768-1.389-1.152-3.022-1.152-4.9 0-1.89.384-3.524 1.152-4.898a8.01 8.01 0 0 1 3.215-3.214c1.388-.754 3.007-1.131 4.854-1.131 1.862 0 3.48.377 4.855 1.13a7.697 7.697 0 0 1 3.215 3.193Zm-3.015 4.92c0-1.713-.436-3.073-1.308-4.078-.873-1.02-2.12-1.53-3.747-1.53-1.61 0-2.86.51-3.746 1.53-.872 1.005-1.308 2.357-1.308 4.057 0 1.714.436 3.081 1.308 4.1.887 1.02 2.143 1.53 3.769 1.53 1.61 0 2.851-.51 3.724-1.53.872-1.019 1.308-2.379 1.308-4.078Zm23.939-4.92c.769 1.374 1.152 3.015 1.152 4.92 0 1.878-.383 3.51-1.152 4.9a7.968 7.968 0 0 1-3.237 3.214c-1.374.754-2.985 1.131-4.832 1.131s-3.465-.377-4.855-1.13a8.203 8.203 0 0 1-3.215-3.215c-.768-1.389-1.152-3.022-1.152-4.9 0-1.89.384-3.524 1.152-4.898a8.016 8.016 0 0 1 3.215-3.214c1.39-.754 3.008-1.131 4.855-1.131 1.862 0 3.48.377 4.854 1.13a7.69 7.69 0 0 1 3.215 3.193Zm-3.015 4.92c0-1.713-.436-3.073-1.308-4.078-.871-1.02-2.12-1.53-3.746-1.53-1.611 0-2.86.51-3.747 1.53-.871 1.005-1.308 2.357-1.308 4.057 0 1.714.437 3.081 1.308 4.1.887 1.02 2.144 1.53 3.769 1.53 1.611 0 2.853-.51 3.724-1.53.872-1.019 1.308-2.379 1.308-4.078ZM92.262 23.979h13.3v-3.636H96.43v-3.901h8.335v-3.547H96.43V9.658h9.133V6.022H92.262v17.956Zm26.404-10.64-3.968-.82c-1.271-.267-1.906-.843-1.906-1.73 0-.59.258-1.042.775-1.352.517-.325 1.226-.488 2.129-.488 2.053 0 3.287.843 3.701 2.527h4.257c-.149-1.803-.91-3.207-2.284-4.212-1.374-1.005-3.185-1.507-5.43-1.507-2.233 0-3.999.48-5.3 1.441-1.285.96-1.928 2.29-1.928 3.99 0 1.345.414 2.431 1.242 3.259s2.098 1.426 3.813 1.795l3.79.798c.769.163 1.315.392 1.64.688.34.28.51.68.51 1.197 0 .665-.273 1.167-.82 1.507-.531.325-1.345.488-2.438.488-1.212 0-2.166-.23-2.86-.687-.694-.459-1.123-1.153-1.285-2.084h-4.257c.133 1.921.924 3.421 2.372 4.5 1.464 1.064 3.421 1.596 5.875 1.596 2.409 0 4.256-.495 5.542-1.485 1.3-.99 1.95-2.38 1.95-4.168 0-1.448-.406-2.593-1.219-3.436-.813-.842-2.113-1.448-3.901-1.818Zm6.229-3.68h5.63v14.32h4.08V9.658h5.63V6.022h-15.34v3.636Z"></path>
  </svg>